# xmcd
#
# Track frame offsets:
#	183
#	14445
#	28015
#	42403
#	56460
#	69595
#	82795
#	94848
#	108653
#	120818
#	134778
#	148560
#	160398
#	172738
#	185450
#	198668
#	211348
#	225353
#
# Disc length: 3164 seconds
#
# Revision: 1
# Processed by: cddbd v1.5.1PL0 Copyright (c) Steve Scherf et al.
# Submitted via: audiograbber 1.82.02
#
DISCID=f20c5a12
DTITLE=Billie Holiday - Summertime
DYEAR=1900
DGENRE=Blues
TTITLE0=I'll Get By
TTITLE1=I'm Painting The Town Red
TTITLE2=If You Were Mine
TTITLE3=Mean To Me
TTITLE4=What A Night, What A Moon, What A Girl
TTITLE5=Summertime
TTITLE6=He's Funny That Way
TTITLE7=Now They Call It Swing
TTITLE8=I've Got A Date With A Dream
TTITLE9=Carelessly
TTITLE10=One Never Knows Does One
TTITLE11=Me, Myself And I
TTITLE12=It's Too Hot For Words
TTITLE13=A Sunbonnet Blue
TTITLE14=You Let Me Down
TTITLE15=Sugar
TTITLE16=More Than You Know
TTITLE17=Back In Your Own Back Yard
EXTD=
EXTT0=
EXTT1=
EXTT2=
EXTT3=
EXTT4=
EXTT5=
EXTT6=
EXTT7=
EXTT8=
EXTT9=
EXTT10=
EXTT11=
EXTT12=
EXTT13=
EXTT14=
EXTT15=
EXTT16=
EXTT17=
PLAYORDER=
